<svg width="941" height="84" viewBox="0 0 941 84" fill="none" xmlns="http://www.w3.org/2000/svg">
<path d="M30.3 10.2H10.68V12.6H30.3C31.14 12.6 31.62 12.15 31.62 11.4C31.62 10.65 31.14 10.2 30.3 10.2ZM10.68 24H1.2V3H32.7C37.95 3 41.1 7.2 41.1 11.4C41.1 15.03 38.73 18.66 34.71 19.59L41.1 24H28.86L22.77 19.8H10.68V24ZM42.9188 24V3H52.3988L73.3388 15V3H82.8188V24H73.3388L52.3988 12V24H42.9188ZM115.523 24H85.2234V3H115.523C121.313 3 126.023 7.71 126.023 13.5C126.023 19.29 121.313 24 115.523 24ZM94.6734 10.5V16.5H113.423C115.283 16.5 116.573 15.24 116.573 13.5C116.573 11.76 115.283 10.5 113.423 10.5H94.6734ZM133.775 15C129.695 15 127.235 12.6 127.235 9.15C127.235 5.7 129.695 3 133.775 3H166.235V10.2H137.705C136.985 10.2 136.715 10.74 136.715 11.1C136.715 11.46 136.985 12 137.705 12H160.895C164.975 12 167.435 14.4 167.435 17.85C167.435 21.3 164.975 24 160.895 24H128.435V16.8H156.965C157.685 16.8 157.955 16.26 157.955 15.9C157.955 15.54 157.685 15 156.965 15H133.775ZM179.425 2.7H201.325C207.115 2.7 211.825 7.71 211.825 13.5C211.825 19.29 207.115 24.3 201.325 24.3H179.425C173.635 24.3 168.925 19.29 168.925 13.5C168.925 7.71 173.635 2.7 179.425 2.7ZM199.375 10.5H181.375C179.725 10.5 178.375 11.85 178.375 13.5C178.375 15.15 179.725 16.5 181.375 16.5H199.375C201.025 16.5 202.375 15.15 202.375 13.5C202.375 11.85 201.025 10.5 199.375 10.5ZM213.632 24V3H252.632V8.4H223.112V10.8H251.432V16.2H223.112V24H213.632ZM269.915 24V10.2H254.735V3H294.635V10.2H279.395V24H269.915ZM16.38 57V43.2H1.2V36H41.1V43.2H25.86V57H16.38ZM43.5047 57V36H82.5047V41.4H52.9847V43.8H82.5047V49.2H52.9847V51.6H82.5047V57H43.5047ZM106.05 42.6L101.67 48H110.43L106.05 42.6ZM100.71 36H111.39L128.4 57H117.72L115.29 54H96.81L94.38 57H83.7L100.71 36ZM129.608 57V36H142.268L153.938 50.4L165.608 36H178.748V57H169.268V44.67L159.278 57H148.598L139.088 45.27V57H129.608Z" fill="#D33909"/>
<path d="M337.62 14H351L358.74 19.55L366.48 14H379.86L365.43 24.35L380.28 35H366.9L358.74 29.15L350.58 35H337.2L352.05 24.35L337.62 14Z" fill="#D33909"/>
<path d="M442.2 24V3H451.68L472.62 15V3H482.1V24H472.62L451.68 12V24H442.2ZM484.505 24V3H523.505V8.4H493.985V10.8H523.505V16.2H493.985V18.6H523.505V24H484.505ZM525.413 3H538.793L546.533 8.55L554.273 3H567.653L553.223 13.35L568.073 24H554.693L546.533 18.15L538.373 24H524.993L539.843 13.35L525.413 3ZM584.734 24V10.2H569.554V3H609.454V10.2H594.214V24H584.734ZM471.72 49.2V46.5H481.2V57H452.7C446.91 57 442.2 52.29 442.2 46.5C442.2 40.71 446.91 36 452.7 36H481.2V43.8H454.65C453 43.8 451.65 44.85 451.65 46.5C451.65 48.15 453 49.2 454.65 49.2H471.72ZM483.596 57V36H522.596V41.4H493.076V43.8H522.596V49.2H493.076V51.6H522.596V57H483.596ZM524.993 57V36H534.473L555.413 48V36H564.893V57H555.413L534.473 45V57H524.993Z" fill="#D33909"/>
</svg>
